# xmcd
#
# Track frame offsets:
#	150
#	18071
#	33257
#	50505
#	71097
#	86891
#	100247
#	112250
#	126432
#	143833
#	161754
#	176940
#	194188
#	214780
#	230574
#	243930
#	255933
#	270115
#
# Disc length: 3833
#
# Revision: 1
# Processed by: cddbd v1.5.2PL0 Copyright (c) Steve Scherf et al.
# Submitted via: kJams Pro (development) 1.0patch45.10
#
DISCID=080ef712
DTITLE=Various Artist - NSC 3031
DYEAR=1997
DGENRE=Country
TTITLE0=Travis Tritt - Strong Enough To Be Your Man
TTITLE1=Carolyn Dawn Johnson - One Day Closer To You
TTITLE2=Keith Urban - Somebody Like You
TTITLE3=Tammy Cochran - Life Happened
TTITLE4=Lonestar - Unusually Unusual
TTITLE5=Kevin Denny - Cadillac Tears
TTITLE6=Emerson Drive - Fall Into Me
TTITLE7=Eric Heatherly - The Last Man Committed
TTITLE8=Willie Nelson - Maria (Shut Up And Kiss Me)
TTITLE9=Travis Tritt - Vocals - Strong Enough To Be Your Man
TTITLE10=Carolyn Dawn Johnson - Vocals - One Day Closer To You
TTITLE11=Keith Urban - Vocals - Somebody Like You
TTITLE12=Tammy Cochran - Vocals - Life Happened
TTITLE13=Lonestar - Vocals - Unusually Unusual
TTITLE14=Kevin Denny - Vocals - Cadillac Tears
TTITLE15=Emerson Drive - Vocals - Fall Into Me
TTITLE16=Eric Heatherly - Vocals - The Last Man Committed
TTITLE17=Willie Nelson - Vocals - Maria (Shut Up And Kiss Me)
EXTD=
EXTT0=
EXTT1=
EXTT2=
EXTT3=
EXTT4=
EXTT5=
EXTT6=
EXTT7=
EXTT8=
EXTT9=
EXTT10=
EXTT11=
EXTT12=
EXTT13=
EXTT14=
EXTT15=
EXTT16=
EXTT17=
PLAYORDER=
